<?xml version="1.0" encoding="UTF-8" standalone="no"?>
<svg
   xmlns:dc="http://purl.org/dc/elements/1.1/"
   xmlns:cc="http://creativecommons.org/ns#"
   xmlns:rdf="http://www.w3.org/1999/02/22-rdf-syntax-ns#"
   xmlns:svg="http://www.w3.org/2000/svg"
   xmlns="http://www.w3.org/2000/svg"
   version="1.1"
   id="svg3432"
   viewBox="0 0 64.323153 66.317845"
   height="18.71637mm"
   width="18.153423mm">
  <defs
     id="defs3434" />
  <metadata
     id="metadata3437">
    <rdf:RDF>
      <cc:Work
         rdf:about="">
        <dc:format>image/svg+xml</dc:format>
        <dc:type
           rdf:resource="http://purl.org/dc/dcmitype/StillImage" />
        <dc:title></dc:title>
      </cc:Work>
    </rdf:RDF>
  </metadata>
  <g
     transform="translate(-292.83842,-499.20328)"
     id="layer1">
    <g
       id="Ebene_4_2_"
       transform="matrix(0.74074072,0,0,0.74074072,287.96373,495.32483)">
      <path
         id="path84"
         d="m 89.368,41.212 c -2.549,-3.767 -7.506,-5.751 -13.893,-5.751 -5.743,0 -11.021,4.415 -17.05,12.741 -1.396,1.839 -3.252,2.731 -4.731,3.164 0,-1.453 0,-2.793 0,-3.943 0,0 -0.01,-4.474 3.572,-7.196 C 65.593,34.198 70.008,28.92 70.008,23.178 70.008,16.79 68.025,11.835 64.257,9.286 61.38,7.34 55.345,4.749 49.98,5.315 44.615,4.749 38.582,7.34 35.705,9.286 c -3.77,2.548 -5.751,7.504 -5.751,13.892 0,5.743 4.413,11.021 12.739,17.049 3.583,2.722 3.573,7.196 3.573,7.196 0,1.165 0,2.528 0,4.005 -1.472,-0.438 -3.311,-1.33 -4.695,-3.153 -6.027,-8.327 -11.307,-12.741 -17.05,-12.741 -6.387,0 -11.343,1.984 -13.89,5.751 -1.948,2.878 -4.537,8.912 -3.971,14.277 -0.566,5.364 2.022,11.399 3.971,14.276 2.547,3.768 7.503,5.751 13.89,5.751 5.743,0 11.022,-4.413 17.05,-12.741 1.385,-1.822 3.224,-2.714 4.695,-3.151 0,2.163 0,7.94 0,10.933 -1.578,12.757 -3.25,15.166 -14.92,20.404 -2.8,1.122 -4.055,0.871 -4.055,0.871 0,0 0.74,2.86 1.931,2.86 7.121,-3.089 20.775,-2.825 20.775,-2.825 0,0 13.658,-0.264 20.777,2.825 1.192,0 1.931,-2.86 1.931,-2.86 0,0 -1.253,0.251 -4.054,-0.871 C 56.958,85.786 55.303,83.378 53.72,70.555 l -0.027,0 c 0,-3.029 0,-8.768 0,-10.941 1.479,0.432 3.336,1.324 4.731,3.162 6.029,8.328 11.307,12.742 17.05,12.742 6.387,0 11.344,-1.984 13.893,-5.751 1.945,-2.877 4.536,-8.913 3.971,-14.277 0.566,-5.366 -2.025,-11.401 -3.97,-14.278 z" />
    </g>
  </g>
</svg>
