<?xml version="1.0" encoding="UTF-8" standalone="no"?>
<svg
   xmlns:dc="http://purl.org/dc/elements/1.1/"
   xmlns:cc="http://creativecommons.org/ns#"
   xmlns:rdf="http://www.w3.org/1999/02/22-rdf-syntax-ns#"
   xmlns:svg="http://www.w3.org/2000/svg"
   xmlns="http://www.w3.org/2000/svg"
   xmlns:sodipodi="http://sodipodi.sourceforge.net/DTD/sodipodi-0.dtd"
   xmlns:inkscape="http://www.inkscape.org/namespaces/inkscape"
   id="svg2"
   xml:space="preserve"
   enable-background="new 0 0 100 100"
   viewBox="5 -10 56 94.5"
   height="70"
   width="56"
   y="0px"
   x="0px"
   version="1.1"
   inkscape:version="0.91 r13725"
   sodipodi:docname="spade.svg"><sodipodi:namedview
     pagecolor="#ffffff"
     bordercolor="#666666"
     borderopacity="1"
     objecttolerance="10"
     gridtolerance="10"
     guidetolerance="10"
     inkscape:pageopacity="0"
     inkscape:pageshadow="2"
     inkscape:window-width="828"
     inkscape:window-height="611"
     id="namedview55"
     showgrid="false"
     inkscape:zoom="7.3505607"
     inkscape:cx="27.144367"
     inkscape:cy="39.066121"
     inkscape:window-x="0"
     inkscape:window-y="0"
     inkscape:window-maximized="0"
     inkscape:current-layer="svg2" /><metadata
     id="metadata88"><rdf:RDF><cc:Work
         rdf:about=""><dc:format>image/svg+xml</dc:format><dc:type
           rdf:resource="http://purl.org/dc/dcmitype/StillImage" /><dc:title></dc:title></cc:Work></rdf:RDF></metadata><defs
     id="defs86" /><g
     transform="translate(-24.931663,-12.265996)"
     style="display:none"
     display="none"
     id="Ebene_1"><g
       id="Adobe"><g
         style="display:inline"
         display="inline"
         id="Ebene_1_1_"><polygon
           style="fill:#000000"
           id="polygon7"
           points="85.188,140.812 17,72.625 45.482,25.53 122.977,103.021 " /><polygon
           style="fill:#000000"
           id="polygon9"
           points="111.505,134.13 32.375,55 70.014,19.39 148.131,97.504 " /><text
           style="font-size:65.62729645px;font-family:HelveticaNeue-Bold;fill:#000000"
           id="text11"
           font-size="65.6273"
           transform="translate(20.2715,72.3789)">Fl</text>
<g
           id="g13"><path
             id="path15"
             d="M 91,9 91,91 9,91 9,9 91,9 M 95,5 5,5 5,95 95,95 95,5 95,5 Z"
             inkscape:connector-curvature="0" /></g></g><g
         style="display:inline"
         display="inline"
         id="Ebene_5"><path
           id="path18"
           d="m 52.986,62.83 c 0.678,1.027 1.531,1.859 2.559,2.494 1.028,0.635 2.266,0.951 3.709,0.951 1.53,0 2.811,-0.305 3.84,-0.918 1.027,-0.613 1.848,-1.436 2.461,-2.461 0.611,-1.028 1.049,-2.199 1.312,-3.514 0.262,-1.312 0.393,-2.668 0.393,-4.066 0,-1.4 -0.131,-2.746 -0.393,-4.037 -0.264,-1.29 -0.713,-2.428 -1.346,-3.412 -0.637,-0.984 -1.455,-1.782 -2.461,-2.396 -1.01,-0.612 -2.276,-0.919 -3.809,-0.919 -1.531,0 -2.82,0.307 -3.873,0.919 -1.049,0.613 -1.895,1.422 -2.523,2.428 -0.635,1.007 -1.097,2.155 -1.379,3.447 -0.285,1.291 -0.429,2.637 -0.429,4.034 0,1.312 0.153,2.625 0.46,3.938 0.307,1.313 0.8,2.485 1.479,3.512 z M 95,5 95,95 5,95 5,5 95,5 Z M 91,9 9,9 9,91 43.38,91 24.87,72.49 l 0.02,-0.11 10.21,0 0,-46.53 13.88,13.88 c -1.35,0.87 -2.51,1.93 -3.48,3.18 -1.24,1.62 -2.18,3.49 -2.82,5.61 -0.63,2.13 -0.95,4.32 -0.95,6.6 0,2.36 0.32,4.64 0.95,6.819 0.64,2.188 1.58,4.131 2.82,5.811 1.25,1.689 2.84,3.02 4.76,4.01 1.932,0.98 4.16,1.471 6.7,1.471 2.229,0 4.229,-0.398 6,-1.211 1.771,-0.81 3.21,-2.14 4.3,-3.97 l 0.131,0 0,4.33 8.859,0 0,-46.75 L 91,40.38 91,9 Z m -14.748,64.814 0,0 0,0 0,0 0,0 z"
           inkscape:connector-curvature="0" /></g><g
         style="display:inline"
         display="inline"
         id="Ebene_4"><path
           id="path21"
           d="m 41.507,36.94 c 0.502,0.919 0.755,2.123 0.755,3.61 0,1.488 -0.252,2.69 -0.755,3.609 -0.503,0.919 -1.171,1.63 -2.001,2.133 -0.832,0.503 -1.794,0.843 -2.888,1.017 -1.094,0.176 -2.231,0.263 -3.413,0.263 l -8.007,0 0,-14.045 8.007,0 c 1.181,0 2.318,0.088 3.413,0.263 1.093,0.175 2.056,0.515 2.888,1.017 0.83,0.504 1.498,1.214 2.001,2.133 z M 95,5 95,95 5,95 5,5 95,5 Z M 91,9 9,9 9,91 33.38,91 14.94,72.561 l 0.15,-0.181 10.11,0 0,-16.8 10.83,0 c 2.93,0 5.42,-0.43 7.48,-1.28 2.05,-0.85 3.73,-1.979 5.02,-3.38 1.29,-1.4 2.23,-3.01 2.82,-4.82 0.592,-1.82 0.893,-3.67 0.893,-5.55 0,-1.93 -0.301,-3.78 -0.893,-5.58 -0.529,-1.61 -1.357,-3.05 -2.45,-4.35 l 0.07,-0.09 10.63,10.63 c -0.56,0.55 -1.06,1.18 -1.488,1.88 -0.852,1.4 -1.279,3.2 -1.279,5.38 0,1.49 0.311,2.75 0.92,3.78 0.609,1.03 1.42,1.88 2.432,2.56 1,0.682 2.148,1.221 3.438,1.641 1.29,0.41 2.62,0.779 3.97,1.08 3.33,0.699 5.92,1.399 7.78,2.102 1.858,0.701 2.79,1.75 2.79,3.148 0,0.83 -0.2,1.521 -0.592,2.069 -0.398,0.55 -0.891,0.979 -1.479,1.312 -0.589,0.33 -1.25,0.568 -1.97,0.721 -0.722,0.16 -1.41,0.229 -2.062,0.229 -0.92,0 -1.811,-0.101 -2.66,-0.33 -0.858,-0.211 -1.608,-0.551 -2.271,-1.01 -0.649,-0.461 -1.188,-1.051 -1.601,-1.771 -0.42,-0.729 -0.629,-1.591 -0.629,-2.601 l -8.86,0 c 0.09,2.278 0.601,4.17 1.54,5.68 0.949,1.511 2.15,2.721 3.609,3.641 1.471,0.92 3.141,1.58 5.021,1.971 1.89,0.399 3.81,0.59 5.78,0.59 1.93,0 3.818,-0.181 5.68,-0.561 1.859,-0.37 3.51,-1.01 4.95,-1.93 1.45,-0.92 2.62,-2.131 3.51,-3.641 0.899,-1.512 1.351,-3.382 1.351,-5.619 0,-1.57 -0.311,-2.893 -0.92,-3.973 C 85.952,56.44 85.14,55.538 84.129,54.82 83.119,54.099 81.98,53.519 80.691,53.08 79.39,52.65 78.07,52.279 76.72,51.971 75.4,51.66 74.111,51.38 72.839,51.12 c -1.27,-0.271 -2.39,-0.56 -3.38,-0.89 -0.979,-0.33 -1.78,-0.75 -2.39,-1.28 -0.61,-0.53 -0.92,-1.2 -0.92,-2.03 0,-0.7 0.17,-1.26 0.52,-1.68 0.35,-0.41 0.78,-0.73 1.28,-0.95 0.51,-0.22 1.06,-0.36 1.68,-0.43 0.61,-0.06 1.181,-0.09 1.7,-0.09 1.67,0 3.109,0.31 4.34,0.95 1.221,0.63 1.9,1.85 2.03,3.64 l 8.858,0 c -0.181,-2.1 -0.709,-3.84 -1.608,-5.22 -0.61,-0.94 -1.341,-1.74 -2.16,-2.42 L 83.06,40.69 91,48.63 91,9 Z"
           inkscape:connector-curvature="0" /></g><g
         style="display:inline"
         display="inline"
         id="Ebene_2"><path
           id="path24"
           d="m 45.85,54.266 -12.142,0 6.103,-17.194 0.131,0 5.908,17.194 z M 95,5 95,95 5,95 5,5 95,5 Z M 91,9 9,9 9,91 35.38,91 17,72.62 l 0.15,-0.24 10.19,0 3.68,-10.438 17.52,0 3.54,10.438 10.699,0 -17.429,-46.63 0.13,-0.22 20.629,20.62 0.021,-0.02 0,26.25 9.32,0 0,-33.93 -4.13,0 -5.262,-5.26 0.069,-0.06 0,0.07 9.32,0 0,-7.58 0.278,-0.23 L 91,40.66 91,9 Z"
           inkscape:connector-curvature="0" /></g><g
         style="display:inline"
         display="inline"
         id="Ebene_3"><g
           id="g27"><path
             id="path29"
             d="M 9,9 9,91 35.38,91 17,72.62 l 0.15,-0.24 10.19,0 3.68,-10.438 17.52,0 3.54,10.438 10.699,0 -17.429,-46.63 0.13,-0.22 20.629,20.62 0.021,-0.02 0,26.25 9.32,0 0,-33.93 -4.13,0 -5.262,-5.26 0.069,-0.06 0,0.07 9.32,0 0,-7.58 0.278,-0.23 L 91,40.66 91,9 9,9 Z m 36.85,45.27 -12.14,0 6.1,-17.2 0.13,0 5.91,17.2 z"
             inkscape:connector-curvature="0" /></g></g><path
         style="display:inline"
         id="path31"
         d="m 97.695,61.951 c 0,0.045 0.007,0.09 0.007,0.135 l 0,1.668 c 0,4.854 -3.935,8.787 -8.788,8.787 l -34.214,0 0,-9.33 10.854,0 L 50,45.655 34.444,63.21 l 10.856,0 0,9.331 -34.214,0 c -4.854,0 -8.788,-3.934 -8.788,-8.787 l 0,-1.668 c 0,-0.471 0.048,-0.932 0.12,-1.383 -0.072,-0.613 -0.12,-1.232 -0.12,-1.863 0,-8.717 7.067,-15.784 15.784,-15.784 0.772,0 1.524,0.074 2.267,0.181 2.318,-9.528 11.967,-15.778 22.255,-15.778 9.292,0 17.326,5.376 21.169,13.186 1.783,-0.615 3.691,-0.965 5.686,-0.965 6.706,0 12.521,3.783 15.45,9.327 7.067,0.008 12.794,5.74 12.794,12.808 -0.001,0.046 -0.008,0.089 -0.008,0.136 z"
         display="inline"
         inkscape:connector-curvature="0" /></g><g
       id="Ebene_2_1_"><g
         style="display:inline"
         id="g34"
         display="inline"><g
           id="g36"><path
             id="path38"
             d="m 65.863,14.034 0,30.583 -30.583,0 0,-30.583 30.583,0 z m -45.875,81.556 0,-91.751 61.167,0 0,81.556 -5.098,0 0,5.098 -5.096,0 0,5.098 -50.973,0 z m 45.875,-25.486 -5.098,0 0,5.096 5.098,0 0,-5.096 z m -40.778,0 5.098,0 0,5.096 5.097,0 0,-5.097 5.097,0 0,-5.098 -5.097,0 0,-5.098 -5.097,0 0,5.098 -5.098,0 0,5.099 z m 50.972,-10.195 -5.096,0 0,5.098 5.096,0 0,-5.098 z m 0,-50.972 -50.972,0 0,40.778 45.876,0 0,-5.098 5.096,0 0,-35.68 z"
             inkscape:connector-curvature="0" /></g></g></g><g
       id="Ebene_3_1_"><path
         style="display:inline"
         id="path41"
         d="m 89.134,32.973 0,-5.509 -5.509,0 0,-5.509 0,-5.509 -5.509,0 0,-5.509 -5.509,0 -5.51,0 0,-5.508 -5.51,0 -5.507,0 -5.51,0 -5.508,0 -5.509,0 -5.509,0 0,5.509 -5.509,0 -5.509,0 0,5.509 -5.509,0 0,5.509 0,5.509 -5.509,0 0,5.509 -5.508,0 0,5.509 0,5.509 0,5.508 0,5.509 0,5.509 0,5.51 0,5.509 5.509,0 5.509,0 0,5.51 0,5.509 0,5.51 5.509,0 0,5.509 5.509,0 5.509,0 5.509,0 5.509,0 5.509,0 5.509,0 5.509,0 5.51,0 5.51,0 5.509,0 0,-5.509 5.509,0 0,-5.51 0,-5.509 0,-5.51 5.51,0 5.508,0 0,-5.509 0,-5.51 0,-5.509 0,-5.509 0,-5.509 0,-5.509 0,-5.509 -5.512,0 z m -27.545,-22.035 0,5.509 5.509,0 5.51,0 0,5.509 0,5.509 -5.51,0 -5.509,0 0,-5.509 -5.509,0 0,-5.509 0,-5.509 5.509,0 z m -27.545,44.071 0,-5.509 0,-5.509 0,-5.509 5.509,0 0,-5.509 5.509,0 5.508,0 5.51,0 5.509,0 0,5.509 5.509,0 0,5.509 0,5.509 0,5.509 -5.509,0 0,5.509 -5.509,0 -5.51,0 -5.508,0 -5.509,0 0,-5.509 -5.509,0 z m -5.508,-38.563 5.509,0 5.509,0 0,-5.509 5.509,0 0,5.509 0,5.509 -5.509,0 0,5.509 -5.509,0 -5.509,0 0,-5.509 0,-5.509 z M 12.009,49.5 l 0,-5.509 0,-5.509 5.509,0 0,-5.509 5.509,0 5.509,0 0,5.509 0,5.509 0,5.509 -5.509,0 0,5.509 -5.509,0 -5.509,0 0,-5.509 z m 66.107,27.545 0,5.51 -5.509,0 0,5.508 -5.51,0 -5.51,0 -5.507,0 -5.51,0 -5.508,0 -5.509,0 -5.509,0 -5.509,0 0,-5.508 -5.509,0 0,-5.51 0,-5.51 5.509,0 0,-5.51 5.509,0 5.509,0 0,5.51 0,5.51 5.509,0 0,-5.51 0,-5.51 5.508,0 5.51,0 0,5.51 0,5.51 5.509,0 0,-5.51 0,-5.51 5.509,0 5.51,0 0,5.51 5.51,0 -0.002,5.51 0,0 z m 11.018,-33.054 0,5.509 0,5.509 -5.509,0 -5.509,0 0,-5.509 -5.509,0 0,-5.509 0,-5.509 0,-5.509 5.509,0 5.509,0 0,5.509 5.509,0 0,5.509 z"
         display="inline"
         inkscape:connector-curvature="0" /></g><g
       id="Ebene_4_1_"><path
         style="display:inline"
         id="path44"
         d="m 89.134,32.973 0,-5.509 -5.509,0 0,-5.509 0,-5.509 -5.509,0 0,-5.509 -5.509,0 -5.51,0 0,-5.508 -5.51,0 -5.507,0 -5.51,0 -5.508,0 -5.509,0 -5.509,0 0,5.509 -5.509,0 -5.509,0 0,5.509 -5.509,0 0,5.509 0,5.509 -5.509,0 0,5.509 -5.508,0 0,5.509 0,5.509 0,5.508 0,5.509 0,5.509 0,5.51 0,5.509 5.509,0 5.509,0 0,5.51 0,5.509 0,5.51 5.509,0 0,5.509 5.509,0 5.509,0 5.509,0 5.509,0 5.509,0 5.509,0 5.509,0 5.51,0 5.51,0 5.509,0 0,-5.509 5.509,0 0,-5.51 0,-5.509 0,-5.51 5.51,0 5.508,0 0,-5.509 0,-5.51 0,-5.509 0,-5.509 0,-5.509 0,-5.509 0,-5.509 -5.512,0 z m -11.018,44.072 0,5.51 -5.509,0 0,5.508 -5.51,0 -5.51,0 -5.507,0 -5.51,0 -5.508,0 -5.509,0 -5.509,0 -5.509,0 0,-5.508 -5.509,0 0,-5.51 0,-5.51 5.509,0 0,-5.51 5.509,0 5.509,0 0,5.51 0,5.51 5.509,0 0,-5.51 0,-5.51 5.508,0 5.51,0 0,5.51 0,5.51 5.509,0 0,-5.51 0,-5.51 5.509,0 5.51,0 0,5.51 5.51,0 -0.002,5.51 0,0 z m 11.018,-16.527 0,5.51 -5.509,0 -5.509,0 0,-5.51 -5.509,0 -5.51,0 -5.51,0 0,-5.509 5.51,0 0,-5.509 0,-5.509 0,-5.509 -5.51,0 0,-5.509 -5.507,0 -5.51,0 -5.508,0 -5.509,0 0,5.509 -5.509,0 0,5.509 0,5.509 0,5.509 5.509,0 0,5.509 -5.509,0 -5.509,0 -5.509,0 0,5.51 -5.509,0 -5.509,0 0,-5.51 0,-5.509 5.509,0 5.509,0 0,-5.509 5.509,0 0,-5.509 0,-5.509 0,-5.509 -5.509,0 0,-5.509 0,-5.509 5.509,0 0,5.509 5.509,0 5.509,0 0,-5.509 5.509,0 0,-5.509 0,-5.509 5.508,0 5.51,0 0,5.509 0,5.509 5.509,0 0,5.509 5.509,0 5.51,0 0,-5.509 5.51,0 0,5.509 0,5.509 -5.51,0 0,5.509 0,5.509 0,5.509 5.51,0 0,5.509 5.509,0 5.509,0 -0.002,5.509 0,0 z"
         display="inline"
         inkscape:connector-curvature="0" /></g><g
       id="Ebene_5_1_"><path
         style="display:inline"
         id="path47"
         d="m 22.188,11.062 -5.562,0 0,-5.562 5.562,0 5.562,0 5.562,0 5.562,0 5.562,0 5.564,0 5.562,0 5.562,0 5.562,0 0,5.562 -5.562,0 -5.562,0 -5.562,0 -5.562,0 -5.562,0 -5.562,0 -5.564,0 -5.562,0 z m 50.062,5.563 0,-5.562 -5.562,0 0,5.562 5.562,0 z m 16.688,11.125 0,5.562 0,5.562 0,5.562 0,5.564 0,5.562 0,5.562 0,5.562 -5.562,0 0,5.562 -5.562,0 0,-5.562 0,-5.562 5.562,0 0,-5.562 0,-5.562 0,-5.562 0,-5.562 0,-5.562 -5.562,0 0,-5.564 5.562,0 5.562,0 0,-5.562 -5.562,0 -5.562,0 0,-5.562 -5.564,0 0,5.562 0,5.562 0,5.562 0,5.562 0,5.562 0,5.564 0,5.562 0,5.562 0,5.562 0,5.562 -5.562,0 0,5.562 0,5.562 5.562,0 0,-5.562 5.562,0 5.562,0 5.562,0 0,-5.56 5.564,0 0,-5.562 0,-5.562 0,-5.562 0,-5.564 0,-5.562 0,-5.562 0,-5.562 0,-5.564 -5.562,0 z m -27.813,61.188 -5.562,0 -5.563,0 -5.562,0 -5.562,0 -5.562,0 -5.564,0 -5.562,0 0,-5.562 -5.562,0 0,5.562 0,5.562 5.562,0 5.562,0 5.562,0 5.562,0 5.562,0 5.564,0 5.562,0 5.562,0 5.562,0 0,-5.562 0,-5.562 -5.562,0 10e-4,5.562 0,0 z m -44.5,-16.688 -5.562,0 0,5.562 0,5.562 5.562,0 0,-5.562 0,-5.562 z m -5.563,-11.125 0,-5.562 0,-5.563 0,-5.562 0,-5.562 0,-5.562 0,-5.564 0,-5.562 0,-5.562 -5.562,0 0,5.562 0,5.562 0,5.562 0,5.562 0,5.562 0,5.564 0,5.562 0,5.562 0,5.562 0,5.562 5.562,0 0,-5.562 0,-5.561 z m 5.563,-50.063 -5.562,0 0,5.562 5.562,0 0,-5.562 z m 49.813,17.438 0,-5.562 -5.562,0 0,-5.562 -5.562,0 -5.564,0 -5.562,0 -5.562,0 -5.562,0 -5.564,0 -5.562,0 0,5.562 -5.562,0 0,5.562 0,5.562 5.562,0 0,5.562 5.562,0 5.562,0 5.562,0 5.562,0 5.562,0 5.562,0 5.562,0 0,-5.562 5.562,0 0,-5.562 0.004,0 z"
         display="inline"
         inkscape:connector-curvature="0" /></g><g
       id="Ebene_6"><path
         style="display:inline"
         id="path50"
         d="m 42.591,9.25 0,7.409 -7.409,0 -7.409,0 -7.409,0 0,-7.409 7.409,0 7.409,0 7.409,0 z m 0,7.409 0,7.409 7.409,0 7.408,0 0,-7.409 -7.408,0 -7.409,0 z m 37.046,0 0,7.409 7.408,0 0,-7.409 -7.408,0 z m 7.408,7.409 0,7.409 0,7.409 0,7.409 7.41,0 0,-7.409 0,-7.409 0,-7.409 -7.41,0 z m -7.408,29.636 0,7.409 0,7.408 0,7.41 0,7.408 -7.41,0 -7.408,0 -7.409,0 -7.41,0 -7.409,0 -7.409,0 0,7.409 7.409,0 7.409,0 7.408,0 7.41,0 7.408,0 7.41,0 7.407,0 0,-7.408 0,-7.408 0,-7.41 0,-7.408 0,-7.409 0,-7.409 -7.407,0 0,7.408 0.001,0 z m -66.682,-29.636 7.409,0 0,-7.409 -7.409,0 0,7.409 z m -7.41,7.409 0,7.409 0,7.409 7.409,0 0,-7.409 0,-7.409 0,-7.409 -7.409,0 0,7.409 z m 7.41,29.636 0,7.408 7.409,0 0,-7.408 0,-7.409 0,-7.409 -7.409,0 0,7.409 0,7.409 z M 50,68.521 l -7.409,0 0,7.41 7.409,0 7.408,0 7.41,0 0,-7.41 -7.41,0 -7.408,0 z m -14.818,-22.226 0,7.409 7.409,0 0,-7.409 0,-7.409 -7.409,0 0,7.409 z m 37.045,14.818 -7.408,0 0,7.408 7.408,0 0,-7.408 z m -7.409,-14.818 0,-7.409 -7.41,0 0,7.409 0,7.409 7.41,0 0,-7.409 z m 7.409,-37.045 -7.408,0 -7.409,0 0,7.409 7.409,0 7.408,0 7.41,0 0,-7.409 -7.41,0 z"
         display="inline"
         inkscape:connector-curvature="0" /></g><g
       id="Ebene_7"><path
         style="display:inline"
         d="m 28.148,83.35 c -0.793,-0.226 -1.098,0.012 -1.649,-0.312 -1.036,-0.604 -1.463,-2.144 -0.927,-3.502 0.308,-0.78 1.744,-1.431 1.958,-2.062 0.371,-1.091 -0.292,-3.453 -0.309,-5.05 -0.058,-5.604 0.48,-10.491 1.34,-15.043 0.702,-3.717 1.476,-8.051 2.679,-12.056 0.371,-1.235 1.242,-3.206 0.927,-4.122 -0.297,-0.864 -1.617,-0.763 -1.546,-1.752 0.052,-0.717 1.213,-1.042 1.546,-1.649 0.499,-0.909 0.642,-2.392 1.031,-3.606 1.116,-3.485 2.279,-7.543 3.4,-10.613 -0.429,-0.816 0.193,-1.819 0.309,-2.988 0.087,-0.871 -0.148,-2.092 -0.206,-3.297 -0.055,-1.16 0.155,-2.43 -0.103,-3.194 -0.258,-0.764 -1.074,-1.453 -0.928,-2.37 2.298,-1.446 6.392,-1.097 9.48,-1.751 -0.034,-3.505 1.662,-7.163 4.636,-7.316 0.776,-0.041 1.465,0.472 2.164,0.515 0.793,0.049 1.424,-0.335 2.062,-0.309 3.324,0.135 4.084,3.221 4.225,7.006 3.139,0.365 6.813,0.193 8.861,1.649 0.021,0.728 -0.771,1.28 -0.929,1.958 -0.174,0.759 0.062,1.993 0,3.4 -0.058,1.381 -0.28,2.938 -0.103,3.916 0.082,0.446 0.479,0.844 0.516,1.237 0.055,0.558 -0.253,0.882 -0.206,1.339 0.108,1.064 0.815,2.296 1.235,3.503 0.918,2.639 1.582,4.604 2.371,7.109 0.412,1.314 0.681,2.911 1.133,3.606 0.439,0.677 1.531,0.731 1.546,1.546 0.021,0.988 -1.188,1.042 -1.442,1.751 -0.4,1.125 0,3.896 0,5.874 0,13.88 0.032,30.731 0,42.968 0.53,0.557 0.438,1.992 0,2.885 -0.933,1.896 -4.427,2.777 -7.109,3.398 -8.041,1.864 -21.957,1.877 -28.542,-0.824 -1.492,-0.609 -3.417,-1.79 -3.504,-3.504 -0.029,-0.58 0.235,-1.002 0.31,-1.646 0.165,-1.425 -0.126,-3.113 0,-4.431 -1.41,-0.508 -2.862,-1.879 -4.226,-2.263 z M 48.858,9.674 c 1.588,0.175 3.873,0.166 5.46,0 0.234,-2.368 -0.31,-4.745 -1.752,-5.77 -2.239,0.92 -3.616,2.701 -3.708,5.77 z M 32.062,46.357 c -2.078,7.181 -4.529,18.793 -3.503,29.057 0.166,1.658 -0.164,1.999 0.824,2.679 0.686,0.472 1.709,1.083 2.885,1.134 0.03,-10.702 -0.059,-21.629 -0.206,-32.87 z"
         display="inline"
         id="hkmfda_1_"
         inkscape:connector-curvature="0" /></g><g
       id="Ebene_8"><path
         style="display:inline"
         id="path55"
         d="m 65.421,87.163 c 0.076,11.442 -15.838,10.42 -15.838,10.42 -14.171,0 -15.005,-8.867 -15.005,-8.867 l 0,-39.255 c 0,-15.915 2.349,-18.339 2.349,-18.339 5.759,-14.171 5.002,-22.204 5.002,-22.204 l -0.17,0 -0.625,-0.512 0.057,-1.279 c 0.228,-0.142 1.023,-0.625 1.023,-0.625 -0.512,0.057 -1.42,-0.255 -1.42,-0.255 l 0,-2.076 c 0.084,-0.341 0.653,-0.654 0.653,-0.654 0.114,-0.341 1.052,-0.795 1.052,-0.795 11.167,-0.739 14.833,0 14.833,0 0.654,0.142 1.023,0.682 1.023,0.682 0.426,0.028 0.738,0.597 0.738,0.597 l -0.086,2.16 -1.275,0.332 0.414,0.379 0.606,0.378 0,1.156 -0.758,0.512 c -1.44,4.546 3.522,19.438 3.522,19.438 3.713,6.214 3.902,14.286 3.902,14.286 l 0,44.106"
         display="inline"
         inkscape:connector-curvature="0" /></g><g
       id="Ebene_9"><path
         style="display:inline"
         id="path58"
         d="m 55.355,5.465 c 1.16,1.031 0.658,3.72 1.096,5.474 7.415,0.16 8.924,5.266 10.947,11.495 0.539,1.659 1.136,3.456 1.644,5.201 0.554,1.898 0.476,4.068 1.095,5.748 0.694,1.879 2.877,3.227 3.283,6.021 0.382,2.604 -0.798,7.389 -0.818,10.674 -0.064,9.248 -0.52,20.926 0.272,28.738 0.229,2.289 0.946,3.877 0.821,5.475 C 72.85,94.93 58.654,96.102 44.409,95.238 36.087,94.734 27.196,92.926 26.891,84.839 26.812,82.755 27.66,80.781 27.713,79.091 28.089,67.235 27.163,53.108 26.345,42.688 25.714,34.646 30.608,28.364 34.008,23.803 36.727,20.159 39.652,16.887 42.493,13.129 41.4,11.259 41.763,8.463 42.22,6.012 44.778,4.048 52.096,4.226 55.355,5.465 Z m 2.739,21.623 c 1.342,2.921 2.449,6.242 4.379,6.843 0.08,-5.836 -1.709,-12.152 -3.832,-16.696 -6.291,-1.062 -2.12,6.426 -0.547,9.853 z"
         display="inline"
         inkscape:connector-curvature="0" /></g><g
       id="Ebene_10"><path
         style="display:inline"
         id="path61"
         d="m 96.932,62.014 -0.922,-25.97 -92.327,0 -0.614,24.743 7.567,1.02 12.377,0.029 c -0.2,-0.445 -0.312,-0.938 -0.312,-1.457 0,-1.977 1.602,-3.578 3.578,-3.578 1.975,0 3.578,1.602 3.578,3.578 0,0.525 -0.116,1.023 -0.319,1.473 l 5.146,0.013 c -0.207,-0.453 -0.326,-0.955 -0.326,-1.484 0,-1.978 1.602,-3.578 3.578,-3.578 1.977,0 3.579,1.603 3.579,3.578 0,0.537 -0.122,1.043 -0.334,1.5 l 33.734,0.082 c -0.235,-0.478 -0.373,-1.014 -0.373,-1.582 0,-1.978 1.604,-3.578 3.58,-3.578 1.976,0 3.578,1.601 3.578,3.577 0,0.574 -0.14,1.117 -0.382,1.599 l 15.614,0.035 z M 5.267,42.946 l 0,-5.291 88.571,0 0,5.291 0,18.251 -9.432,0 0,-18.251 -79.139,0 z m 58.051,12.575 -9.435,0 -33.662,0 -9.432,0 0,-8.281 71.699,0 0,8.281 -19.17,0 0,0 z m -34.152,4.858 c 0,1.594 -1.293,2.889 -2.887,2.889 -1.595,0 -2.887,-1.295 -2.887,-2.889 0,-1.595 1.292,-2.888 2.887,-2.888 1.594,0 2.887,1.293 2.887,2.888 z m 11.769,0 c 0,1.655 -1.343,2.999 -3,2.999 -1.656,0 -2.999,-1.344 -2.999,-2.999 0,-1.656 1.342,-2.999 2.999,-2.999 1.657,0 3,1.343 3,2.999 z m 40.185,0 c 0,1.655 -1.343,2.999 -2.999,2.999 -1.657,0 -3.001,-1.344 -3.001,-2.999 0,-1.656 1.344,-2.999 3.001,-2.999 1.656,0 2.999,1.343 2.999,2.999 z"
         display="inline"
         inkscape:connector-curvature="0" /></g><g
       id="Ebene_11"><path
         style="display:inline"
         id="path64"
         d="m 8.647,42.919 c 0,-0.017 0.002,-0.034 0.002,-0.051 0,0.192 0.017,0.382 0.029,0.573 l -0.008,0 C 8.663,43.266 8.647,43.094 8.647,42.919 Z M 48.935,19.642 C 27.11,19.642 9.351,29.672 8.68,42.187 9.351,31.293 27.11,20.625 48.935,20.625 70.76,20.625 88.519,31.293 89.189,42.187 88.52,29.672 70.76,19.642 48.935,19.642 Z M 90.311,49.68 c 0.006,-0.174 0.021,-0.346 0.021,-0.52 0,-1.904 -0.396,-3.754 -1.124,-5.529 -0.001,-0.064 -0.006,-0.127 -0.008,-0.189 0.007,-0.176 0.021,-0.348 0.021,-0.521 0,-0.018 -0.002,-0.035 -0.002,-0.052 -0.006,1.288 -0.261,2.546 -0.729,3.766 -0.256,2.382 -0.325,5.285 -1.295,7.016 -1.103,1.974 -3.323,2.432 -5.289,3.162 -2.156,0.802 -3.225,1.399 -4.411,3.926 -0.446,0.947 -0.104,1.822 -0.935,2.805 -2.227,2.643 -3.985,-0.643 -6.802,0.521 -1.801,0.748 -1.586,2.369 -4.188,2.912 -1.286,0.269 -2.797,0.033 -3.756,-0.373 -2.998,-1.269 -3.982,-2.379 -7.238,-0.939 -1.021,0.451 -3.123,2.924 -3.91,2.957 -1.341,0.059 -1.31,-1.27 -2.291,-1.95 -1.284,-0.89 -8.803,-0.271 -9.25,1.72 -2.692,-1.369 -4.078,-5.246 -6.79,-6.259 -2.956,-1.1 -4.755,1.151 -7.153,-1.229 -1.611,-1.598 -3.059,-2.707 -4.656,-3.814 -2.29,-1.138 -4.308,-2.411 -6,-3.795 C 13.668,53.38 12.599,53.8 12.257,54.404 10.573,50.988 8.463,47.423 8.67,43.446 8.668,43.508 8.663,43.571 8.662,43.635 7.934,45.41 7.538,47.26 7.538,49.164 c 0,0.174 0.017,0.346 0.022,0.52 -0.006,0.174 -0.022,0.346 -0.022,0.52 0,0.176 0.017,0.348 0.022,0.521 -0.006,0.172 -0.022,0.344 -0.022,0.521 0,0.174 0.017,0.346 0.022,0.521 -0.006,0.174 -0.022,0.346 -0.022,0.52 0,0.176 0.017,0.348 0.022,0.521 -0.006,0.172 -0.022,0.344 -0.022,0.52 0,0.174 0.017,0.346 0.022,0.52 -0.006,0.174 -0.022,0.346 -0.022,0.521 0,0.176 0.017,0.348 0.022,0.521 -0.006,0.172 -0.022,0.344 -0.022,0.52 0,0.175 0.017,0.347 0.022,0.521 -0.006,0.175 -0.022,0.347 -0.022,0.521 0,13.211 18.533,23.918 41.396,23.918 22.863,0 41.397,-10.713 41.397,-23.924 0,-0.174 -0.017,-0.347 -0.021,-0.521 0.006,-0.174 0.021,-0.346 0.021,-0.521 0,-0.176 -0.017,-0.348 -0.021,-0.52 0.006,-0.174 0.021,-0.346 0.021,-0.521 0,-0.174 -0.017,-0.346 -0.021,-0.52 0.006,-0.174 0.021,-0.346 0.021,-0.52 0,-0.176 -0.017,-0.348 -0.021,-0.521 0.006,-0.174 0.021,-0.346 0.021,-0.521 0,-0.174 -0.017,-0.346 -0.021,-0.521 0.006,-0.174 0.021,-0.346 0.021,-0.521 0,-0.176 -0.017,-0.348 -0.021,-0.52 0.006,-0.174 0.021,-0.346 0.021,-0.521 0,-0.173 -0.017,-0.344 -0.02,-0.518 z m -1.122,-7.493 c 0.013,0.227 0.028,0.453 0.029,0.681 0,-0.015 0.002,-0.029 0.002,-0.044 0.003,-0.213 -0.017,-0.425 -0.031,-0.637 z M 8.65,42.868 c 0,-0.229 0.018,-0.455 0.03,-0.681 -0.013,0.212 -0.032,0.424 -0.032,0.637 -10e-4,0.015 10e-4,0.029 0.002,0.044 z m 24.307,4.667 c 3.755,-2.16 9.513,-3.546 15.978,-3.546 6.465,0 12.223,1.386 15.979,3.546 1.85,-1.063 3.199,-2.316 3.92,-3.683 0.377,-0.716 0.591,-1.461 0.591,-2.231 0,-5.224 -9.174,-9.459 -20.489,-9.459 -11.315,0 -20.489,4.235 -20.489,9.459 0,0.673 0.17,1.326 0.46,1.958 0.675,1.473 2.079,2.822 4.05,3.956 z"
         display="inline"
         inkscape:connector-curvature="0" /></g><g
       id="Ebene_12"><path
         style="display:inline"
         id="path67"
         d="m 29.765,43.531 c 0.021,0 0.041,0 0.061,0 0,0.018 0,0.035 0,0.053 0,0 -0.063,-0.055 -0.061,-0.053 z m 31.809,8.679 c 0,-2.982 0,-5.758 0,-8.736 1.511,0 2.938,0 4.365,0 0,-1.628 0,-3.047 0,-4.542 -3.097,0 -6.062,0 -9.024,0 0,2.963 0,5.927 0,9.021 -2.951,0 -5.772,0 -8.854,0 0,-4.541 0,-9.077 0,-13.613 -1.511,0 -3.021,10e-4 -4.532,0.002 0,1.485 0,2.972 0,4.654 -4.776,0 -9.263,0 -13.703,0 0,1.648 0,3.093 0,4.535 3.008,0.002 6.016,0.002 9.151,0.002 0,1.643 0,3.025 0,4.604 1.56,0 2.99,0 4.367,0 0,1.506 0,2.8 0,4.23 -1.529,0 -2.908,0 -4.318,0 0,6.152 0,12.165 0,18.265 1.558,0 2.997,0 4.436,0 0,-3.009 0,-6.019 0,-9.224 1.692,0 3.116,0 4.734,0 0,-1.625 0,-3.049 0,-4.598 1.453,0 2.703,0 4.147,0 0,-1.558 0,-2.983 0,-4.369 1.628,0 3.046,0 4.595,0 0,3.047 0,5.949 0,8.93 1.553,0 2.973,0 4.594,0 0,-1.529 0,-2.956 0,-4.516 1.635,0 3.072,0 4.508,0 0,-1.481 0,-2.967 0,-4.646 -1.638,10e-4 -3.061,10e-4 -4.466,10e-4 z M 56.915,38.932 c 0,-0.019 0,-0.038 0,-0.056 -0.019,0 -0.035,0 -0.054,0 0,0.019 0,0.038 0,0.056 0.019,0 0.035,0 0.054,0 z m 9.124,17.923 c 0,0.019 0,0.035 0,0.055 l 0.054,-0.055 c -0.018,0 -0.036,0 -0.054,0 z M 97.75,3.069 c 0,10.432 0,20.734 0,31.138 -10.512,0 -20.939,0 -31.523,0 0,-10.306 0,-20.653 0,-31.138 10.418,0 20.891,0 31.523,0 z m -4.616,4.153 c -7.474,0 -14.841,0 -22.329,0 0,7.581 0,14.994 0,22.339 7.555,0 14.967,0 22.329,0 0,-7.526 0,-14.894 0,-22.339 z M 3.093,66.111 c 10.416,0 20.671,0 31.073,0 0,10.515 0,20.988 0,31.593 -10.316,0 -20.662,0 -31.073,0 0,-10.54 0,-21.058 0,-31.593 z m 4.119,26.98 c 7.61,0 15.023,0 22.407,0 0,-7.519 0,-14.886 0,-22.312 -7.512,0 -14.925,0 -22.407,0 0,7.485 0,14.852 0,22.312 z M 34.225,34.21 c -10.387,0 -20.688,0 -31.141,0 0,-10.316 0,-20.663 0,-31.144 10.299,0 20.646,0 31.141,0 0,10.442 0,20.744 0,31.144 z M 29.616,7.226 c -7.47,0 -14.837,0 -22.338,0 0,7.569 0,14.981 0,22.34 7.551,0 14.964,0 22.338,0 0,-7.522 0,-14.89 0,-22.34 z m 13.773,67.611 c 0.021,0 0.041,0 0.061,0 0.002,0.002 -0.061,-0.054 -0.061,-0.054 0,0.018 0,0.035 0,0.054 z M 39.058,97.73 c 3.06,0 5.963,0 8.991,0 0,-1.525 0,-2.957 0,-4.387 -0.017,0 -0.033,0 -0.049,0 0,-0.019 0,-0.037 0,-0.057 -1.423,0 -2.848,0 -4.386,0 0,-1.588 0,-3.001 0,-4.605 1.494,0 2.968,0 4.442,0 0,-0.019 0,-0.037 0,-0.055 0.018,0 0.036,0 0.054,0 0,-1.432 0,-2.865 0,-4.434 1.354,0 2.643,0 4.06,0 0,1.391 0,2.807 0,4.434 -1.355,0 -2.708,0 -4.06,0 0,0.018 0,0.036 0,0.055 -0.018,0 -0.037,0 -0.055,0 -0.018,1.533 -0.036,3.068 -0.056,4.605 0.016,0 0.033,0 0.049,0 0,0.02 0,0.038 0,0.057 2.892,0.002 5.784,0.002 8.882,0.002 0,1.52 0,2.948 0,4.338 3.164,0 6.118,0 9.037,0 0,-3.06 0,-5.967 0,-9.082 -1.523,0 -2.953,0 -4.576,0 0,-4.692 0,-9.181 0,-13.625 -1.59,0 -2.969,0 -4.553,0 0,1.526 0,2.957 0,4.338 -4.566,0 -8.923,0 -13.45,0 0,-1.592 0,-3.035 0,-4.479 -1.475,-0.003 -2.946,-0.003 -4.331,-0.003 10e-4,7.876 10e-4,15.408 10e-4,22.898 z M 25.485,39.016 c -7.605,0 -15.006,0 -22.427,0 0,3.063 0,6.012 0,9.039 1.432,0 2.741,0 4.05,0 0,-1.482 0,-2.964 0,-4.427 4.76,0 9.235,0 13.911,0 0,1.555 0,2.979 0,4.53 1.58,0 2.958,0 4.533,0 0,1.427 0,2.725 0,4.003 3.027,0 5.849,0 8.604,0 0,-1.433 0,-2.726 0,-4.151 -1.533,0 -2.911,0 -4.388,0 0,-1.562 0,-2.995 -0.002,-4.427 -1.361,-0.002 -2.724,-0.002 -4.279,-0.002 -0.002,-1.691 -0.002,-3.12 -0.002,-4.565 z m 4.338,4.567 c 0.002,0.001 -0.061,-0.054 -0.059,-0.051 0,0.017 0,0.034 0,0.051 0.02,0 0.04,0 0.059,0 z M 56.952,11.7 c 1.555,0 2.981,0 4.387,0 0,-1.629 0,-3.049 0,-4.4 -3.092,0 -6.042,0 -9.12,0 0,3.062 0,5.967 0,9 -4.44,0 -8.745,0 -13.174,0 0,1.688 0,3.108 0,4.466 6.02,0 11.898,0 17.908,0 -0.001,-3.055 -0.001,-5.96 -0.001,-9.066 z m 31.624,49.872 c -1.583,0 -2.96,0 -4.536,0 0,3.039 0,5.994 0,9.146 -1.626,0 -3.054,0 -4.423,0 0,1.504 0,2.797 0,4.225 1.529,0 2.906,0 4.484,0 0,1.56 0,2.988 0,4.49 1.637,0 3.076,0 4.515,0 0,-1.484 0,-2.972 0,-4.65 1.707,0 3.131,0 4.526,0 0,-2.985 0,-5.762 0,-8.743 -1.518,0 -2.947,0 -4.566,0 0,-1.626 0,-3.054 0,-4.468 z M 79.502,83.95 c 0,0.021 0,0.041 0,0.062 -0.002,0.002 0.053,-0.062 0.053,-0.062 -0.018,0 -0.035,0 -0.053,0 z m -4.684,-4.559 c 0,-1.562 0,-2.99 0,-4.365 -3.036,0 -5.862,0 -8.641,0 0,1.531 0,2.91 0,4.492 1.529,0 2.959,0 4.584,0 0,1.631 0,3.056 0,4.434 3.053,0 5.896,0 8.739,0 0.002,-1.479 0.002,-2.955 0.002,-4.561 -1.723,0 -3.104,0 -4.684,0 z m 4.68,-27.011 c 1.639,0 3.062,0 4.615,0 0,1.581 0,2.959 0,4.394 1.559,0 2.979,0 4.602,0 0,-1.535 0,-2.963 0,-4.582 1.626,0 3.051,0 4.42,0 0,-1.515 0,-2.829 0,-4.141 -4.547,0.021 -9.092,0.044 -13.637,0.067 0,1.356 0,2.713 0,4.262 z m 13.637,-4.383 c 0,0.018 0,0.036 0,0.054 0.021,0 0.04,0 0.061,0 0,-0.017 0,-0.035 0.002,-0.052 -0.021,0 -0.04,0 -0.061,0 l -0.002,-0.002 z m -13.692,0.121 c 0.019,0 0.037,0 0.055,0 0,-0.019 0,-0.037 0,-0.055 l -0.055,0.055 z m -67.688,8.737 c -0.018,0 -0.036,0 -0.054,0 0,0.019 0,0.035 0,0.055 l 0.054,-0.055 z M 3.077,52.357 c 0,1.615 0,3.031 0,4.498 2.969,0 5.797,0 8.624,0 0,-1.479 0,-2.961 0,-4.627 1.689,0 3.111,0 4.477,0 0,-1.49 0,-2.779 0,-4.121 -3.103,0 -6.059,0 -9.015,0 0,1.354 0,2.708 0,4.25 -1.542,0 -2.836,0 -4.086,0 z m 4.086,-4.248 c 0,-0.018 0,-0.036 0,-0.054 -0.018,0 -0.037,0 -0.055,0 0,0.018 0,0.036 0,0.054 0.018,0 0.037,0 0.055,0 z m 72.28,0.009 0.055,-0.054 c -0.018,0 -0.036,0 -0.055,0 0,0.018 0,0.036 0,0.054 z m -4.648,-4.59 c 0,-1.701 0,-3.125 0,-4.535 -1.451,0 -2.697,0 -4.033,0 0,4.437 0,8.782 0,13.187 1.391,0 2.684,0 4.176,0 0,-1.406 0,-2.704 0,-4.117 1.633,0 3.071,0 4.508,0 -0.004,-1.512 -0.008,-3.023 -0.012,-4.535 -1.482,0 -2.966,0 -4.639,0 z m -63.04,13.327 -0.054,0.055 c 0.018,0 0.036,0 0.054,0 0,-0.017 0,-0.036 0,-0.055 z m 13.609,4.499 c 0,-1.549 0,-2.968 0,-4.442 -4.633,0 -9.122,0 -13.609,0 0,1.481 0,2.965 0,4.442 4.695,0 9.168,0 13.609,0 z m 63.179,22.613 c 0,0.018 0,0.036 0,0.055 0.021,0 0.041,0 0.061,0 0,-0.019 0,-0.035 0.002,-0.053 -0.021,0 -0.041,0 -0.061,0 l -0.002,-0.002 z m -9.041,0.045 c 0.018,0 0.034,0 0.051,0 0,-0.02 0,-0.039 0,-0.059 0.002,-0.003 -0.053,0.061 -0.051,0.059 z m 0.049,4.656 c 1.518,0 2.944,0 4.561,0 0,1.621 0,3.048 0,4.541 1.634,0 3.07,0 4.506,0 -0.025,-3.062 -0.049,-6.126 -0.073,-9.188 -2.998,-0.006 -5.993,-0.008 -8.989,-0.01 -0.005,1.488 -0.005,2.975 -0.005,4.657 z M 79.352,65.973 c 0,-3.05 0,-5.996 0,-8.951 -1.539,0 -2.959,0 -4.58,0 0,1.559 0,2.98 0,4.564 -1.516,0 -2.83,0 -4.144,0 -0.002,1.475 -0.002,2.946 -0.002,4.387 3.117,0 5.892,0 8.726,0 z m -8.778,-4.387 c 0.018,0 0.035,0 0.054,0 0,-0.021 0,-0.041 0,-0.062 -0.019,0 -0.034,0 -0.052,0 0,0.021 0,0.041 0,0.061 l -0.002,10e-4 z M 56.915,34.281 c 1.479,0 2.96,0 4.438,0 0,-3.027 0,-5.841 0,-8.641 -3.072,0 -6.018,0 -9.027,0 0,1.435 0,2.744 0,4.051 1.438,0 2.879,0 4.589,0 0,1.619 0,3.105 0,4.59 z m -4.589,-4.589 c -0.02,0 -0.038,0 -0.057,0 0,0.018 0,0.035 0,0.053 0.019,0 0.037,0 0.057,0 0,-0.018 0,-0.036 0,-0.053 z M 47.924,7.267 c -3.01,0 -5.958,0 -8.875,0 0,1.548 0,2.968 0,4.425 3.001,0 5.857,0 8.875,0 0,-1.473 0,-2.935 0,-4.425 z m 9.094,63.254 c 3.08,0 6.029,0 8.961,0 0,-1.521 0,-2.896 0,-4.34 -3.045,0 -5.992,0 -8.961,0 0,1.532 0,2.952 0,4.34 z M 39.037,25.636 c 0,2.946 0,5.763 0,8.652 1.566,0 3.002,0 4.437,0 0,-2.878 0,-5.757 0,-8.652 -1.62,0 -3.037,0 -4.437,0 z m 4.437,8.652 c 0,0.018 0,0.036 0,0.054 0.018,0 0.036,0 0.054,0 0,-0.018 0,-0.036 0,-0.054 -0.018,0 -0.036,0 -0.054,0 z m 27.309,63.476 c 1.365,0 2.613,0 3.938,0 0,-3.162 0,-6.111 0,-9.011 -1.4,0 -2.65,0 -3.938,0 0,3.056 0,6.003 0,9.011 z m 17.887,-4.5 c 0,-0.019 0,-0.035 0,-0.055 -0.018,0 -0.036,0 -0.054,0 0,0.02 0,0.036 0,0.055 0.018,0 0.036,0 0.054,0 z m 4.434,4.442 c 0,-1.545 0,-2.961 0,-4.442 -1.567,0 -3.002,0 -4.434,0 0,1.479 0,2.959 0,4.442 1.626,0 3.042,0 4.434,0 z m -4.435,-18.22 c 0,-0.018 0.001,-0.035 0.001,-0.053 -0.018,0 -0.036,0 -0.054,0 0,0.018 0,0.035 0,0.053 0.018,0 0.034,0 0.053,0 z m 4.425,4.485 c 0,-1.615 0,-3.025 0,-4.482 -1.57,0 -2.998,0 -4.425,0 -0.021,1.492 -0.045,2.986 -0.063,4.48 1.52,0.002 3.039,0.002 4.488,0.002 z M 52.322,38.876 c 1.568,0 3.055,0 4.539,0 0,-1.513 0,-3.026 0,-4.539 -1.514,0 -3.025,0 -4.539,0 0,1.438 0,2.879 0,4.539 z m 4.539,-4.539 c 0.019,0 0.035,0 0.054,0 0,-0.019 0,-0.037 0,-0.056 -0.019,0 -0.035,0 -0.054,0 0,0.019 0,0.037 0,0.056 z m 36.487,27.02 c 1.526,0 2.945,0 4.346,0 0,-1.547 0,-2.965 0,-4.381 -1.514,0 -2.889,0 -4.346,0 0,1.601 0,2.977 0,4.381 z m -22.772,0.166 c 0.002,-1.522 0.002,-3.045 0.002,-4.613 -1.629,0 -3.059,0 -4.485,0 0,1.479 0,2.959 0,4.617 1.626,0 3.055,0 4.483,-0.004 z M 66.039,56.91 c 0.018,0 0.036,0 0.054,0 0,-0.018 0,-0.036 0,-0.055 l -0.054,0.055 z m -36.245,4.479 c 1.587,0 2.961,0 4.408,0 0,-1.514 0,-2.933 0,-4.375 -1.531,0 -2.95,0 -4.408,0 0,1.5 0,2.875 0,4.375 z M 79.488,43.474 c -0.02,0 -0.036,0 -0.055,0 0,0.018 0,0.037 0,0.055 0.019,0 0.035,0 0.055,0 0,-0.019 0,-0.037 0,-0.055 z m 4.444,-4.433 c -1.547,0 -2.963,0 -4.443,0 0,1.568 0,3 0,4.433 1.479,0 2.959,0 4.443,0 0,-1.626 0,-3.042 0,-4.433 z m 4.852,-0.013 c 0,1.544 0,2.958 0,4.435 1.563,0 2.993,0 4.424,0 0,-1.477 0,-2.953 0,-4.435 -1.615,0 -3.03,0 -4.424,0 z m 4.424,4.435 c 0,0.018 0,0.036 0,0.054 0.019,0 0.035,0 0.054,0 0,-0.018 0,-0.036 0,-0.054 -0.018,0 -0.035,0 -0.054,0 z m 4.48,0.054 c -1.571,0 -3,0 -4.427,0 -0.021,1.493 -0.044,2.986 -0.063,4.481 1.52,0.002 3.04,0.002 4.49,0.002 0,-1.615 0,-3.026 0,-4.483 z m -49.749,31.27 c 0,-1.487 0,-2.771 0,-4.102 -1.571,0 -2.999,0 -4.424,0 -0.022,1.366 -0.044,2.731 -0.064,4.1 1.522,0.002 3.04,0.002 4.488,0.002 z m -4.424,-4.099 c 0,-0.02 0,-0.037 10e-4,-0.056 -0.018,0 -0.036,0 -0.054,0 0,0.019 0,0.036 0,0.056 0.017,0 0.036,0 0.053,0 z m -0.065,4.149 c 0,-0.019 0,-0.034 10e-4,-0.052 -0.02,0 -0.04,0 -0.06,0 -0.002,-0.002 0.061,0.054 0.059,0.052 z m 8.82,-45.092 c -1.357,0 -2.716,0 -4.157,0 0,1.66 0,3.101 0,4.54 1.385,0 2.772,0 4.157,0 0,-1.514 0,-3.027 0,-4.54 z m -4.157,4.539 c -0.018,0 -0.035,0 -0.052,0 0,0.019 0,0.038 0,0.056 0.018,0 0.035,0 0.052,0 0,-0.018 0,-0.037 0,-0.056 z m 4.157,0 c 0,0.018 0,0.035 0,0.053 0.019,0 0.035,0 0.054,0 0,-0.018 0,-0.035 0,-0.053 -0.019,0 -0.037,0 -0.054,0 z M 88.564,11.835 c -4.652,0 -9.088,0 -13.573,0 0,4.58 0,9.059 0,13.54 4.598,0 9.077,0 13.573,0 0,-4.569 0,-9.003 0,-13.54 z M 11.84,88.568 c 4.539,0 8.973,0 13.531,0 0,-4.646 0,-9.125 0,-13.539 -4.621,0 -9.101,0 -13.531,0 0,4.591 0,9.026 0,13.539 z M 25.374,11.886 c -4.616,0 -9.096,0 -13.539,0 0,4.587 0,9.021 0,13.538 4.535,0 8.969,0 13.539,0 0,-4.632 0,-9.112 0,-13.538 z"
         display="inline"
         inkscape:connector-curvature="0" /></g><g
       id="Ebene_13"><path
         style="display:inline"
         d="m 9.767,12.084 c 0.743,-1.431 2.153,-2.894 3.655,-3.762 2.847,-1.646 9.986,-1.403 12.36,0.538 0.587,0.479 0.98,1.195 1.505,1.72 1.383,1.383 3.24,2.166 3.977,3.547 -0.168,0.966 -1.188,1.048 -1.29,1.935 -0.068,0.595 1.113,1.634 1.505,2.15 1.587,2.091 3.719,4.404 5.804,5.589 2.727,1.549 6.262,2.191 9.781,3.117 3.609,0.949 7.778,0.241 11.93,0.43 7.021,0.319 13.908,0.638 18.486,3.225 1.963,0.058 3.348,0.315 4.192,1.505 0.444,0.626 0.39,1.435 0.752,2.365 0.4,1.024 1.323,1.844 1.827,2.794 1.684,3.171 1.855,6.848 2.58,11.286 0.538,3.292 2.809,6.819 3.654,10.104 0.337,1.311 0.422,2.566 0.859,3.652 0.496,1.234 1.497,2.802 2.258,3.871 0.696,0.981 2.078,1.679 2.256,2.901 0.074,0.507 -0.082,1.04 -0.106,1.612 -0.131,2.973 -0.364,7.188 -0.215,10.316 0.063,1.324 0.853,2.66 0.215,4.192 -0.356,0.187 -0.839,0.696 -1.397,0.86 -0.319,0.094 -0.627,-0.071 -1.073,0 -0.558,0.087 -0.978,0.535 -1.29,0.537 -0.585,0.003 -1.082,-0.506 -1.506,-0.754 -0.301,0.236 -0.879,0.648 -1.396,0.322 -0.26,-0.68 -0.096,-1.795 0.537,-1.934 0.061,-0.155 0.6,-0.827 1.075,-1.184 1.448,-5.713 0.215,-11.026 -2.042,-14.726 -0.585,-0.958 -1.659,-1.794 -2.473,-2.794 -0.797,-0.98 -1.391,-2.202 -2.149,-3.117 -1.104,-1.33 -2.498,-2.396 -3.547,-3.762 -1.097,-1.43 -1.98,-2.956 -3.332,-3.979 -1.294,1.705 -0.353,3.777 -0.322,5.482 0.017,0.928 -0.112,1.617 0.215,2.473 0.402,1.047 1.228,2.282 1.935,3.225 0.879,1.168 2.033,1.844 2.149,3.654 0.069,1.061 -0.473,2.215 -0.645,3.117 -0.316,1.657 -0.316,3.434 -0.753,5.266 -0.2,0.843 -0.553,4.15 -1.074,4.945 -0.954,1.447 -4.451,1.512 -6.449,0.858 0.194,-1.532 1.561,-1.403 2.365,-2.149 1.115,-1.035 1.678,-4.016 1.72,-5.804 0.025,-1.106 -0.329,-2.983 -0.753,-4.192 -0.438,-1.246 -0.949,-2.781 -1.396,-3.547 -0.74,-1.265 -2.191,-1.789 -3.225,-3.01 -1.232,-1.458 -2.166,-3.225 -3.225,-4.729 -1.166,-1.656 -2.055,-3.407 -2.58,-5.269 -1.477,0.255 -2.816,-0.446 -2.579,-2.257 -1.703,0.579 -3.424,1.532 -5.481,2.042 -2.134,0.53 -4.437,0.582 -6.557,1.183 -1.967,0.558 -3.517,1.353 -5.375,2.364 -1.613,0.882 -3.555,2.052 -4.191,3.438 -0.398,0.871 -0.144,1.755 -0.215,2.688 -0.073,0.96 -0.534,2.116 -0.752,3.332 -0.204,1.136 -0.355,2.362 -0.538,3.548 -0.359,2.334 -1.098,4.658 -1.289,6.771 -0.13,1.424 0.3,2.771 0,3.868 -0.128,0.468 -0.643,0.759 -0.86,1.291 -0.574,1.402 -0.099,3.316 -0.967,4.621 0.116,0.676 -0.179,-0.014 -0.538,0.322 -0.171,0.16 -0.146,0.535 -0.322,0.646 -0.169,0.104 -0.476,-0.107 -0.752,0 -0.325,0.126 -0.732,0.967 -1.397,0.86 -0.304,-0.17 0.243,-0.576 -0.107,-0.754 -0.976,-0.207 -1.658,0.643 -2.365,0.754 -0.44,0.045 -0.058,-0.73 -0.43,-0.754 -0.813,0.159 -1.525,-0.205 -2.257,0.107 0.227,-1.852 1.792,-2.363 2.902,-3.332 1.782,-2.684 1.7,-6.523 2.15,-10.963 0.356,-3.521 0.821,-7.582 0.752,-11.717 -0.015,-0.873 -0.169,-1.642 -0.645,-2.256 -0.653,0.776 -0.285,1.774 -0.43,2.688 -0.087,0.549 -0.447,1.048 -0.537,1.611 -0.204,1.269 -0.065,2.565 -0.323,3.869 -0.644,3.254 -1.505,7.1 -1.72,10.642 0.293,0.642 0.647,1.541 0.43,2.364 -0.468,0.222 -1.104,0.055 -1.612,0 -0.604,0.795 -0.934,1.891 -1.397,3.01 -0.361,0.87 -0.718,2.488 -1.505,2.9 -0.361,0.19 -1.014,0.088 -1.504,0.217 -0.909,0.238 -1.514,0.591 -2.257,0.537 -0.403,-0.029 -0.767,-0.27 -1.182,-0.322 -1.055,-0.139 -2.286,0.316 -3.332,-0.215 -0.208,-1.354 1.527,-2.242 2.687,-2.902 2.574,0.686 4.231,-2.837 4.944,-5.589 0.05,-0.194 0.09,-0.396 0.107,-0.537 0.837,-6.776 -0.288,-13.56 -1.075,-19.776 -0.311,-2.457 -1.137,-5.026 -1.935,-7.095 -0.85,-2.2 -2.008,-4.479 -1.935,-6.986 0.049,-1.675 0.116,-2.736 -0.215,-4.299 -0.438,-2.074 -0.839,-3.193 -1.72,-4.944 C 17.422,33.201 15.703,30.208 15.25,26.584 13.031,25.543 11.961,23.352 8.908,23.145 7.926,22.443 7.767,20.918 6.221,20.781 4.702,19.297 5.456,16.268 6.006,14.224 c 0.58,-2.149 1.16,-2.434 3.761,-2.14 z"
         display="inline"
         id="_x37_e9LC2.tif"
         inkscape:connector-curvature="0" /></g><g
       id="Ebene_14"><path
         style="display:inline"
         id="path72"
         d="m 90.635,50.749 c -1.101,-0.7 -2.13,-1.484 -3.236,-2.188 -2.106,-1.339 -4.498,-3.188 -6.738,-4.112 -3.602,-1.487 -8.434,-0.624 -12.688,-0.263 -1.268,0.107 -3.176,0.551 -4.024,0.087 C 62.703,43.594 62.387,39.474 62.024,37.536 61.11,32.679 60.19,28.073 59.223,23.098 59.004,21.975 58.795,20.629 58.522,19.511 58.315,18.66 57.934,17.651 57.141,17.285 l -1.188,-5.617 -0.044,-0.208 -36.578,0 0.882,6.397 c -0.006,-0.003 -0.012,-0.007 -0.017,-0.009 -1.318,-0.55 -3.129,1.663 -3.326,2.625 -0.411,2.007 0.335,4.752 0.612,6.913 0.301,2.35 0.512,4.646 0.788,6.913 0.595,4.883 1.227,9.479 1.4,13.738 -4.53,0.779 -10.26,0.357 -12.338,3.588 0,0.7 0,1.398 0,2.1 0.029,0 0.058,0 0.088,0 0.54,4.848 1.25,9.791 2.1,14.438 0.394,2.157 1.33,4.188 2.1,6.214 0.779,2.045 1.309,4.342 2.275,5.95 2.124,3.534 7.792,2.137 12.425,1.573 1.341,1.854 3.019,4.477 4.638,6.65 1.197,1.608 1.9,2.197 4.726,1.926 0.906,-0.088 1.956,-0.068 2.449,-0.612 -0.12,-1.3 -0.773,-2.45 -1.225,-3.587 -0.899,-2.268 -1.833,-4.51 -2.8,-6.826 -0.452,-1.082 -1.151,-2.166 -1.138,-3.412 l 39.725,-4.551 c 1.972,-1.153 3.011,1.578 3.938,2.801 1.608,2.119 6.673,9.479 7.524,8.925 0.958,-0.622 -0.363,-2.026 -0.875,-2.8 -1.213,-1.705 -2.725,-3.048 -3.588,-4.812 4.169,-1.211 10.152,0.092 11.9,-3.5 1.088,-2.233 1.272,-5.209 1.838,-7.963 0.563,-2.752 0.752,-5.609 1.399,-8.312 0,-0.583 0,-1.166 0,-1.749 -0.788,-1.644 -2.672,-2.359 -4.196,-3.329 z M 17.136,53.17 c -0.976,0 -1.768,-0.277 -1.768,-0.62 0,-0.342 0.792,-0.62 1.768,-0.62 0.976,0 1.768,0.278 1.768,0.62 -0.001,0.343 -0.792,0.62 -1.768,0.62 z m 2.798,-41.185 35.548,0 1.101,5.198 5.847,27.6 -1.63,0.15 -20.563,1.892 C 35.122,47.2 30.006,47.531 24.878,47.848 L 19.934,11.985 Z m 2.741,44.32 c -1.377,0 -2.494,-0.391 -2.494,-0.875 0,-0.482 1.116,-0.875 2.494,-0.875 1.378,0 2.494,0.393 2.494,0.875 -0.001,0.484 -1.117,0.875 -2.494,0.875 z"
         display="inline"
         inkscape:connector-curvature="0" /></g><g
       id="Ebene_15"><path
         style="display:inline"
         id="path75"
         d="M 80.357,15.336 C 79.929,12.564 79.597,10.563 78.072,8.022 77.409,7.008 76.869,6.238 75.48,5.583 61.814,4.173 48.704,3.401 34.486,3.297 25.827,6.494 23.037,16.027 19.551,24.632 c 0.737,17.804 1.405,35.677 2.133,53.49 0.19,1.308 -0.737,1.498 -0.609,2.744 1.032,6.28 4.239,10.391 7.925,14.021 2.037,1.062 6.572,1.715 6.572,1.816 2.286,0 18.036,-3.93 24.211,-5.627 5.606,-2.217 13.295,-2.352 16.915,-6.553 0.292,-1.918 -0.396,-2.856 -0.608,-4.27 1.456,-21.423 4.958,-42.354 4.267,-64.917 z m -6.705,11.125 c -10.178,0.49 -20.481,0.853 -30.783,1.219 -3.688,-3.095 -0.276,-11.92 -0.663,-17.324 1.003,-0.036 29.879,0.162 30.517,0.542 0.375,4.502 1.604,9.859 2.301,14.039 -0.219,0.745 -1.191,0.739 -1.372,1.524 z"
         display="inline"
         inkscape:connector-curvature="0" /></g></g><g
     transform="translate(-16.831663,-12.265996)"
     id="Ebene_2_2_"><path
       id="path78"
       d="m 83.815,70.332 c -7.621,7.623 -23.738,-0.352 -26.164,-0.533 -3.748,-0.279 -3.929,2.758 -3.929,2.758 1.581,12.822 3.237,15.229 14.931,20.477 2.799,1.123 4.053,0.871 4.053,0.871 0,0 -0.738,2.861 -1.93,2.861 C 63.655,93.678 50,93.939 50,93.939 c 0,0 -13.656,-0.262 -20.776,2.826 -1.192,0 -1.931,-2.861 -1.931,-2.861 0,0 1.254,0.252 4.055,-0.871 11.693,-5.248 13.349,-7.654 14.929,-20.477 0,0 -0.181,-3.037 -3.928,-2.758 C 39.924,69.98 23.807,77.954 16.184,70.331 9.263,63.411 11.455,50.515 26.632,31.183 35.744,19.577 38.151,17.171 50,3.235 61.848,17.171 64.256,19.577 73.368,31.184 88.545,50.516 90.737,63.412 83.815,70.332 Z"
       inkscape:connector-curvature="0" /></g></svg>